<svg width="13" height="12" viewBox="0 0 13 12" fill="none" xmlns="http://www.w3.org/2000/svg">
<mask id="path-1-inside-1_44_232" fill="white">
<path d="M5.17789 0.199636C5.24788 0.284979 5.29075 0.389297 5.301 0.499188C5.31125 0.609078 5.2884 0.719523 5.2354 0.816333C4.81959 1.57919 4.60255 2.43444 4.60428 3.30325C4.60428 6.19338 6.96056 8.53367 9.86458 8.53367C10.2441 8.53319 10.6114 8.49485 10.9665 8.41867C11.0752 8.39543 11.1882 8.40456 11.2917 8.44493C11.3952 8.4853 11.4846 8.55514 11.5488 8.64579C11.6167 8.74014 11.6513 8.85436 11.6473 8.97053C11.6433 9.0867 11.6008 9.19824 11.5265 9.28765C10.9627 9.98009 10.2514 10.538 9.44464 10.9207C8.63784 11.3035 7.75579 11.5014 6.8628 11.5C3.54905 11.5 0.86499 8.83052 0.86499 5.54147C0.86499 3.06605 2.38457 0.942835 4.54821 0.0429461C4.65595 -0.00283888 4.77567 -0.0123131 4.88927 0.0159553C5.00287 0.0442238 5.10418 0.108699 5.17789 0.199636ZM4.357 0.942116C3.5251 1.3884 2.82964 2.0517 2.34451 2.86153C1.85939 3.67136 1.60272 4.59747 1.60178 5.54147C1.60178 8.43088 3.95878 10.7712 6.8628 10.7712C7.55819 10.7722 8.2469 10.6354 8.88909 10.3687C9.53129 10.102 10.1142 9.71059 10.6042 9.21721C10.3618 9.2474 10.1152 9.26249 9.86458 9.26249C6.55083 9.26249 3.86749 6.59301 3.86749 3.30396C3.86749 2.46517 4.04144 1.66663 4.357 0.942116Z"/>
</mask>
<path d="M5.17789 0.199636C5.24788 0.284979 5.29075 0.389297 5.301 0.499188C5.31125 0.609078 5.2884 0.719523 5.2354 0.816333C4.81959 1.57919 4.60255 2.43444 4.60428 3.30325C4.60428 6.19338 6.96056 8.53367 9.86458 8.53367C10.2441 8.53319 10.6114 8.49485 10.9665 8.41867C11.0752 8.39543 11.1882 8.40456 11.2917 8.44493C11.3952 8.4853 11.4846 8.55514 11.5488 8.64579C11.6167 8.74014 11.6513 8.85436 11.6473 8.97053C11.6433 9.0867 11.6008 9.19824 11.5265 9.28765C10.9627 9.98009 10.2514 10.538 9.44464 10.9207C8.63784 11.3035 7.75579 11.5014 6.8628 11.5C3.54905 11.5 0.86499 8.83052 0.86499 5.54147C0.86499 3.06605 2.38457 0.942835 4.54821 0.0429461C4.65595 -0.00283888 4.77567 -0.0123131 4.88927 0.0159553C5.00287 0.0442238 5.10418 0.108699 5.17789 0.199636ZM4.357 0.942116C3.5251 1.3884 2.82964 2.0517 2.34451 2.86153C1.85939 3.67136 1.60272 4.59747 1.60178 5.54147C1.60178 8.43088 3.95878 10.7712 6.8628 10.7712C7.55819 10.7722 8.2469 10.6354 8.88909 10.3687C9.53129 10.102 10.1142 9.71059 10.6042 9.21721C10.3618 9.2474 10.1152 9.26249 9.86458 9.26249C6.55083 9.26249 3.86749 6.59301 3.86749 3.30396C3.86749 2.46517 4.04144 1.66663 4.357 0.942116Z" fill="black"/>
<path d="M5.17789 0.199636L4.40104 0.829343L4.40466 0.833751L5.17789 0.199636ZM5.2354 0.816333L4.35825 0.336103L4.35736 0.337741L5.2354 0.816333ZM4.60428 3.30325H5.60428L5.60428 3.30125L4.60428 3.30325ZM9.86458 8.53367V9.53367L9.86584 9.53367L9.86458 8.53367ZM10.9665 8.41867L10.7574 7.44079L10.7567 7.44092L10.9665 8.41867ZM11.5488 8.64579L10.7326 9.22372L10.7372 9.23003L11.5488 8.64579ZM11.5265 9.28765L10.7573 8.6485L10.751 8.65624L11.5265 9.28765ZM6.8628 11.5L6.86433 10.5H6.8628V11.5ZM4.54821 0.0429461L4.93224 0.966297L4.93932 0.963291L4.54821 0.0429461ZM4.357 0.942116L5.27382 1.34143L6.42527 -1.30225L3.88427 0.0609115L4.357 0.942116ZM1.60178 5.54147L0.601778 5.54047V5.54147H1.60178ZM6.8628 10.7712L6.86431 9.77117H6.8628V10.7712ZM10.6042 9.21721L11.3138 9.92188L13.3545 7.86709L10.4807 8.22487L10.6042 9.21721ZM4.40466 0.833751C4.34819 0.764894 4.31359 0.680717 4.30532 0.592032L6.29668 0.406343C6.26792 0.097876 6.14758 -0.194936 5.95113 -0.434479L4.40466 0.833751ZM4.30532 0.592032C4.29705 0.503345 4.31549 0.414219 4.35826 0.336104L6.11254 1.29656C6.26131 1.02483 6.32544 0.714812 6.29668 0.406343L4.30532 0.592032ZM4.35736 0.337741C3.8612 1.24801 3.60221 2.26854 3.60428 3.30524L5.60428 3.30125C5.60288 2.60035 5.77798 1.91037 6.11344 1.29492L4.35736 0.337741ZM3.60428 3.30325C3.60428 6.75135 6.41398 9.53367 9.86458 9.53367V7.53367C7.50714 7.53367 5.60428 5.63541 5.60428 3.30325H3.60428ZM9.86584 9.53367C10.3123 9.5331 10.7497 9.48795 11.1763 9.39641L10.7567 7.44092C10.4732 7.50176 10.1759 7.53327 9.86332 7.53367L9.86584 9.53367ZM11.1757 9.39654C11.0931 9.41422 11.007 9.40728 10.9283 9.37656L11.6551 7.51331C11.3694 7.40185 11.0573 7.37663 10.7574 7.44079L11.1757 9.39654ZM10.9283 9.37656C10.8495 9.34584 10.7815 9.2927 10.7327 9.2237L12.3649 8.06789C12.1876 7.81758 11.9409 7.62477 11.6551 7.51331L10.9283 9.37656ZM10.7372 9.23003C10.6757 9.14457 10.6443 9.04108 10.6479 8.93583L12.6467 9.00522C12.6584 8.66763 12.5577 8.3357 12.3604 8.06156L10.7372 9.23003ZM10.6479 8.93583C10.6516 8.83058 10.6901 8.72953 10.7574 8.64854L12.2956 9.92676C12.5115 9.66696 12.635 9.34282 12.6467 9.00522L10.6479 8.93583ZM10.751 8.65624C10.2812 9.23331 9.68843 9.69827 9.01604 10.0172L9.87324 11.8242C10.8145 11.3777 11.6442 10.7269 12.3019 9.91905L10.751 8.65624ZM9.01604 10.0172C8.34365 10.3362 7.60855 10.5011 6.86433 10.5L6.86127 12.5C7.90303 12.5016 8.93202 12.2707 9.87324 11.8242L9.01604 10.0172ZM6.8628 10.5C4.09546 10.5 1.86499 8.27237 1.86499 5.54147H-0.13501C-0.13501 9.38866 3.00265 12.5 6.8628 12.5V10.5ZM1.86499 5.54147C1.86499 3.48692 3.12567 1.71764 4.93223 0.96627L4.16419 -0.880377C1.64347 0.168026 -0.13501 2.64519 -0.13501 5.54147H1.86499ZM4.93932 0.963291C4.84722 1.00243 4.74489 1.01052 4.64779 0.986362L5.13074 -0.954452C4.80644 -1.03515 4.46468 -1.00811 4.1571 -0.877398L4.93932 0.963291ZM4.64779 0.986362C4.55069 0.9622 4.46408 0.907085 4.40105 0.829333L5.95473 -0.430061C5.74428 -0.689688 5.45505 -0.873752 5.13074 -0.954452L4.64779 0.986362ZM3.88427 0.0609115C2.89318 0.592599 2.06463 1.38282 1.48666 2.34763L3.20237 3.37542C3.59465 2.72058 4.15702 2.18421 4.82974 1.82332L3.88427 0.0609115ZM1.48666 2.34763C0.908691 3.31245 0.602899 4.4158 0.601778 5.54047L2.60178 5.54246C2.60254 4.77914 2.81008 4.03027 3.20237 3.37542L1.48666 2.34763ZM0.601778 5.54147C0.601778 8.98912 3.41247 11.7712 6.8628 11.7712V9.77117C4.50509 9.77117 2.60178 7.87265 2.60178 5.54147H0.601778ZM6.8613 11.7712C7.68884 11.7724 8.50842 11.6096 9.27266 11.2922L8.50552 9.44518C7.98537 9.66122 7.42755 9.77202 6.86431 9.77117L6.8613 11.7712ZM9.27266 11.2922C10.0369 10.9748 10.7306 10.509 11.3138 9.92188L9.89471 8.51254C9.49784 8.91215 9.02568 9.22914 8.50552 9.44518L9.27266 11.2922ZM10.4807 8.22487C10.2802 8.24983 10.075 8.26249 9.86458 8.26249V10.2625C10.1555 10.2625 10.4433 10.245 10.7278 10.2095L10.4807 8.22487ZM9.86458 8.26249C7.0974 8.26249 4.86749 6.03503 4.86749 3.30396H2.86749C2.86749 7.151 6.00427 10.2625 9.86458 10.2625V8.26249ZM4.86749 3.30396C4.86749 2.60467 5.01228 1.9419 5.27382 1.34143L3.44019 0.542798C3.0706 1.39135 2.86749 2.32567 2.86749 3.30396H4.86749Z" fill="black" mask="url(#path-1-inside-1_44_232)"/>
<path d="M10.7731 4.31234L10.7731 4.31235L10.7731 4.31234ZM10.7731 4.31234L10.7731 4.31234L10.7731 4.31234ZM10.9285 1.15339C11.0083 1.26195 11.1041 1.35778 11.2127 1.43755C11.1587 1.47726 11.1077 1.5211 11.06 1.56876L11.4135 1.92233L11.06 1.56876C11.0122 1.61655 10.9683 1.66775 10.9285 1.72189C10.8887 1.66775 10.8447 1.61655 10.7969 1.56876C10.7493 1.5211 10.6982 1.47726 10.6442 1.43755C10.7528 1.35778 10.8487 1.26195 10.9285 1.15339ZM8.39836 3.93878C8.55796 3.7792 8.68474 3.59047 8.77209 3.3833C8.94911 3.80196 9.2824 4.13523 9.70106 4.31226C9.49393 4.3996 9.30522 4.52635 9.14565 4.6859C8.98611 4.84544 8.85936 5.0341 8.77201 5.24119C8.68466 5.0341 8.55791 4.84544 8.39836 4.6859C8.23885 4.5264 8.05021 4.39968 7.84316 4.31234C8.05021 4.22501 8.23885 4.09829 8.39836 3.93878Z" fill="black" stroke="black"/>
</svg>
