<svg width="13" height="12" viewBox="0 0 13 12" fill="none" xmlns="http://www.w3.org/2000/svg">
<mask id="path-1-inside-1_44_208" fill="white">
<path d="M6.61511 7.90625C6.04324 7.90625 5.49479 7.67907 5.09041 7.2747C4.68604 6.87032 4.45886 6.32187 4.45886 5.75C4.45886 5.17813 4.68604 4.62968 5.09041 4.2253C5.49479 3.82093 6.04324 3.59375 6.61511 3.59375C7.18699 3.59375 7.73544 3.82093 8.13981 4.2253C8.54419 4.62968 8.77136 5.17813 8.77136 5.75C8.77136 6.32187 8.54419 6.87032 8.13981 7.2747C7.73544 7.67907 7.18699 7.90625 6.61511 7.90625ZM6.61511 8.625C7.37761 8.625 8.10888 8.3221 8.64804 7.78293C9.18721 7.24376 9.49011 6.5125 9.49011 5.75C9.49011 4.9875 9.18721 4.25624 8.64804 3.71707C8.10888 3.1779 7.37761 2.875 6.61511 2.875C5.85261 2.875 5.12135 3.1779 4.58218 3.71707C4.04301 4.25624 3.74011 4.9875 3.74011 5.75C3.74011 6.5125 4.04301 7.24376 4.58218 7.78293C5.12135 8.3221 5.85261 8.625 6.61511 8.625ZM6.61511 0C6.71042 0 6.80183 0.0378626 6.86923 0.105259C6.93663 0.172654 6.97449 0.264063 6.97449 0.359375V1.79688C6.97449 1.89219 6.93663 1.9836 6.86923 2.05099C6.80183 2.11839 6.71042 2.15625 6.61511 2.15625C6.5198 2.15625 6.42839 2.11839 6.361 2.05099C6.2936 1.9836 6.25574 1.89219 6.25574 1.79688V0.359375C6.25574 0.264063 6.2936 0.172654 6.361 0.105259C6.42839 0.0378626 6.5198 0 6.61511 0ZM6.61511 9.34375C6.71042 9.34375 6.80183 9.38161 6.86923 9.44901C6.93663 9.5164 6.97449 9.60781 6.97449 9.70312V11.1406C6.97449 11.2359 6.93663 11.3273 6.86923 11.3947C6.80183 11.4621 6.71042 11.5 6.61511 11.5C6.5198 11.5 6.42839 11.4621 6.361 11.3947C6.2936 11.3273 6.25574 11.2359 6.25574 11.1406V9.70312C6.25574 9.60781 6.2936 9.5164 6.361 9.44901C6.42839 9.38161 6.5198 9.34375 6.61511 9.34375ZM12.3651 5.75C12.3651 5.84531 12.3272 5.93672 12.2599 6.00412C12.1925 6.07151 12.101 6.10938 12.0057 6.10938H10.5682C10.4729 6.10938 10.3815 6.07151 10.3141 6.00412C10.2467 5.93672 10.2089 5.84531 10.2089 5.75C10.2089 5.65469 10.2467 5.56328 10.3141 5.49588C10.3815 5.42849 10.4729 5.39062 10.5682 5.39062H12.0057C12.101 5.39062 12.1925 5.42849 12.2599 5.49588C12.3272 5.56328 12.3651 5.65469 12.3651 5.75ZM3.02136 5.75C3.02136 5.84531 2.9835 5.93672 2.9161 6.00412C2.84871 6.07151 2.7573 6.10938 2.66199 6.10938H1.22449C1.12918 6.10938 1.03777 6.07151 0.970371 6.00412C0.902975 5.93672 0.865112 5.84531 0.865112 5.75C0.865112 5.65469 0.902975 5.56328 0.970371 5.49588C1.03777 5.42849 1.12918 5.39062 1.22449 5.39062H2.66199C2.7573 5.39062 2.84871 5.42849 2.9161 5.49588C2.9835 5.56328 3.02136 5.65469 3.02136 5.75ZM10.6811 1.68403C10.7485 1.75142 10.7863 1.84282 10.7863 1.93811C10.7863 2.0334 10.7485 2.12479 10.6811 2.19219L9.66477 3.20922C9.63136 3.24258 9.5917 3.26904 9.54806 3.28708C9.50442 3.30512 9.45766 3.31439 9.41044 3.31436C9.31507 3.31429 9.22364 3.27634 9.15625 3.20886C9.12289 3.17545 9.09643 3.13579 9.07839 3.09215C9.06035 3.04851 9.05108 3.00175 9.05112 2.95453C9.05118 2.85916 9.08913 2.76773 9.15661 2.70034L10.1729 1.68403C10.2403 1.61666 10.3317 1.57881 10.427 1.57881C10.5223 1.57881 10.6137 1.61666 10.6811 1.68403ZM4.07361 8.2915C4.14098 8.35889 4.17883 8.45028 4.17883 8.54558C4.17883 8.64087 4.14098 8.73226 4.07361 8.79966L3.0573 9.81597C2.98952 9.88143 2.89874 9.91765 2.80452 9.91684C2.71029 9.91602 2.62015 9.87822 2.55352 9.81159C2.48689 9.74496 2.4491 9.65482 2.44828 9.5606C2.44746 9.46637 2.48368 9.37559 2.54914 9.30781L3.56546 8.2915C3.63285 8.22413 3.72424 8.18628 3.81953 8.18628C3.91483 8.18628 4.00622 8.22413 4.07361 8.2915ZM10.6811 9.81597C10.6137 9.88334 10.5223 9.92119 10.427 9.92119C10.3317 9.92119 10.2403 9.88334 10.1729 9.81597L9.15661 8.79966C9.09115 8.73188 9.05493 8.6411 9.05575 8.54687C9.05656 8.45264 9.09436 8.36251 9.16099 8.29588C9.22762 8.22925 9.31776 8.19145 9.41198 8.19063C9.50621 8.18981 9.59699 8.22604 9.66477 8.2915L10.6811 9.30781C10.7485 9.37521 10.7863 9.4666 10.7863 9.56189C10.7863 9.65718 10.7485 9.74858 10.6811 9.81597ZM4.07361 3.20922C4.00622 3.27659 3.91483 3.31444 3.81953 3.31444C3.72424 3.31444 3.63285 3.27659 3.56546 3.20922L2.54914 2.19219C2.51482 2.15904 2.48744 2.11938 2.46861 2.07554C2.44977 2.03169 2.43986 1.98453 2.43944 1.93682C2.43903 1.8891 2.44812 1.84178 2.46619 1.79761C2.48426 1.75344 2.51095 1.71332 2.54469 1.67958C2.57843 1.64583 2.61856 1.61915 2.66272 1.60108C2.70689 1.58301 2.75421 1.57392 2.80193 1.57433C2.84965 1.57475 2.8968 1.58466 2.94065 1.60349C2.98449 1.62233 3.02415 1.64971 3.0573 1.68403L4.07361 2.70034C4.10708 2.73373 4.13363 2.77338 4.15175 2.81704C4.16987 2.86071 4.17919 2.90751 4.17919 2.95478C4.17919 3.00205 4.16987 3.04886 4.15175 3.09252C4.13363 3.13618 4.10708 3.17584 4.07361 3.20922Z"/>
</mask>
<path d="M6.61511 7.90625C6.04324 7.90625 5.49479 7.67907 5.09041 7.2747C4.68604 6.87032 4.45886 6.32187 4.45886 5.75C4.45886 5.17813 4.68604 4.62968 5.09041 4.2253C5.49479 3.82093 6.04324 3.59375 6.61511 3.59375C7.18699 3.59375 7.73544 3.82093 8.13981 4.2253C8.54419 4.62968 8.77136 5.17813 8.77136 5.75C8.77136 6.32187 8.54419 6.87032 8.13981 7.2747C7.73544 7.67907 7.18699 7.90625 6.61511 7.90625ZM6.61511 8.625C7.37761 8.625 8.10888 8.3221 8.64804 7.78293C9.18721 7.24376 9.49011 6.5125 9.49011 5.75C9.49011 4.9875 9.18721 4.25624 8.64804 3.71707C8.10888 3.1779 7.37761 2.875 6.61511 2.875C5.85261 2.875 5.12135 3.1779 4.58218 3.71707C4.04301 4.25624 3.74011 4.9875 3.74011 5.75C3.74011 6.5125 4.04301 7.24376 4.58218 7.78293C5.12135 8.3221 5.85261 8.625 6.61511 8.625ZM6.61511 0C6.71042 0 6.80183 0.0378626 6.86923 0.105259C6.93663 0.172654 6.97449 0.264063 6.97449 0.359375V1.79688C6.97449 1.89219 6.93663 1.9836 6.86923 2.05099C6.80183 2.11839 6.71042 2.15625 6.61511 2.15625C6.5198 2.15625 6.42839 2.11839 6.361 2.05099C6.2936 1.9836 6.25574 1.89219 6.25574 1.79688V0.359375C6.25574 0.264063 6.2936 0.172654 6.361 0.105259C6.42839 0.0378626 6.5198 0 6.61511 0ZM6.61511 9.34375C6.71042 9.34375 6.80183 9.38161 6.86923 9.44901C6.93663 9.5164 6.97449 9.60781 6.97449 9.70312V11.1406C6.97449 11.2359 6.93663 11.3273 6.86923 11.3947C6.80183 11.4621 6.71042 11.5 6.61511 11.5C6.5198 11.5 6.42839 11.4621 6.361 11.3947C6.2936 11.3273 6.25574 11.2359 6.25574 11.1406V9.70312C6.25574 9.60781 6.2936 9.5164 6.361 9.44901C6.42839 9.38161 6.5198 9.34375 6.61511 9.34375ZM12.3651 5.75C12.3651 5.84531 12.3272 5.93672 12.2599 6.00412C12.1925 6.07151 12.101 6.10938 12.0057 6.10938H10.5682C10.4729 6.10938 10.3815 6.07151 10.3141 6.00412C10.2467 5.93672 10.2089 5.84531 10.2089 5.75C10.2089 5.65469 10.2467 5.56328 10.3141 5.49588C10.3815 5.42849 10.4729 5.39062 10.5682 5.39062H12.0057C12.101 5.39062 12.1925 5.42849 12.2599 5.49588C12.3272 5.56328 12.3651 5.65469 12.3651 5.75ZM3.02136 5.75C3.02136 5.84531 2.9835 5.93672 2.9161 6.00412C2.84871 6.07151 2.7573 6.10938 2.66199 6.10938H1.22449C1.12918 6.10938 1.03777 6.07151 0.970371 6.00412C0.902975 5.93672 0.865112 5.84531 0.865112 5.75C0.865112 5.65469 0.902975 5.56328 0.970371 5.49588C1.03777 5.42849 1.12918 5.39062 1.22449 5.39062H2.66199C2.7573 5.39062 2.84871 5.42849 2.9161 5.49588C2.9835 5.56328 3.02136 5.65469 3.02136 5.75ZM10.6811 1.68403C10.7485 1.75142 10.7863 1.84282 10.7863 1.93811C10.7863 2.0334 10.7485 2.12479 10.6811 2.19219L9.66477 3.20922C9.63136 3.24258 9.5917 3.26904 9.54806 3.28708C9.50442 3.30512 9.45766 3.31439 9.41044 3.31436C9.31507 3.31429 9.22364 3.27634 9.15625 3.20886C9.12289 3.17545 9.09643 3.13579 9.07839 3.09215C9.06035 3.04851 9.05108 3.00175 9.05112 2.95453C9.05118 2.85916 9.08913 2.76773 9.15661 2.70034L10.1729 1.68403C10.2403 1.61666 10.3317 1.57881 10.427 1.57881C10.5223 1.57881 10.6137 1.61666 10.6811 1.68403ZM4.07361 8.2915C4.14098 8.35889 4.17883 8.45028 4.17883 8.54558C4.17883 8.64087 4.14098 8.73226 4.07361 8.79966L3.0573 9.81597C2.98952 9.88143 2.89874 9.91765 2.80452 9.91684C2.71029 9.91602 2.62015 9.87822 2.55352 9.81159C2.48689 9.74496 2.4491 9.65482 2.44828 9.5606C2.44746 9.46637 2.48368 9.37559 2.54914 9.30781L3.56546 8.2915C3.63285 8.22413 3.72424 8.18628 3.81953 8.18628C3.91483 8.18628 4.00622 8.22413 4.07361 8.2915ZM10.6811 9.81597C10.6137 9.88334 10.5223 9.92119 10.427 9.92119C10.3317 9.92119 10.2403 9.88334 10.1729 9.81597L9.15661 8.79966C9.09115 8.73188 9.05493 8.6411 9.05575 8.54687C9.05656 8.45264 9.09436 8.36251 9.16099 8.29588C9.22762 8.22925 9.31776 8.19145 9.41198 8.19063C9.50621 8.18981 9.59699 8.22604 9.66477 8.2915L10.6811 9.30781C10.7485 9.37521 10.7863 9.4666 10.7863 9.56189C10.7863 9.65718 10.7485 9.74858 10.6811 9.81597ZM4.07361 3.20922C4.00622 3.27659 3.91483 3.31444 3.81953 3.31444C3.72424 3.31444 3.63285 3.27659 3.56546 3.20922L2.54914 2.19219C2.51482 2.15904 2.48744 2.11938 2.46861 2.07554C2.44977 2.03169 2.43986 1.98453 2.43944 1.93682C2.43903 1.8891 2.44812 1.84178 2.46619 1.79761C2.48426 1.75344 2.51095 1.71332 2.54469 1.67958C2.57843 1.64583 2.61856 1.61915 2.66272 1.60108C2.70689 1.58301 2.75421 1.57392 2.80193 1.57433C2.84965 1.57475 2.8968 1.58466 2.94065 1.60349C2.98449 1.62233 3.02415 1.64971 3.0573 1.68403L4.07361 2.70034C4.10708 2.73373 4.13363 2.77338 4.15175 2.81704C4.16987 2.86071 4.17919 2.90751 4.17919 2.95478C4.17919 3.00205 4.16987 3.04886 4.15175 3.09252C4.13363 3.13618 4.10708 3.17584 4.07361 3.20922Z" fill="black" stroke="black" stroke-width="2" mask="url(#path-1-inside-1_44_208)"/>
</svg>
